0
SECTION
2
HEADER
9
$INSUNITS
70
4
9
$ACADVER
1
AC1014
9
$HANDSEED
5
FFFF
0
ENDSEC
0
SECTION
2
TABLES
0
TABLE
2
VPORT
5
8
100
AcDbSymbolTable
0
ENDTAB
0
TABLE
2
LTYPE
5
5
100
AcDbSymbolTable
0
LTYPE
5
14
100
AcDbSymbolTableRecord
100
AcDbLinetypeTableRecord
2
BYBLOCK
70
0
0
LTYPE
5
15
100
AcDbSymbolTableRecord
100
AcDbLinetypeTableRecord
2
BYLAYER
70
0
0
ENDTAB
0
TABLE
2
LAYER
5
2
100
AcDbSymbolTable
70
2
0
LAYER
5
50
100
AcDbSymbolTableRecord
100
AcDbLayerTableRecord
2
0
70
0
6
CONTINUOUS
0
ENDTAB
0
TABLE
2
STYLE
5
3
100
AcDbSymbolTable
70
1
0
STYLE
5
11
100
AcDbSymbolTableRecord
100
AcDbTextStyleTableRecord
2
STANDARD
70
0
0
ENDTAB
0
TABLE
2
VIEW
5
6
100
AcDbSymbolTable
70
0
0
ENDTAB
0
TABLE
2
UCS
5
7
100
AcDbSymbolTable
70
0
0
ENDTAB
0
TABLE
2
APPID
5
9
100
AcDbSymbolTable
70
2
0
APPID
5
12
100
AcDbSymbolTableRecord
100
AcDbRegAppTableRecord
2
ACAD
70
0
0
ENDTAB
0
TABLE
2
DIMSTYLE
5
A
100
AcDbSymbolTable
70
1
0
ENDTAB
0
TABLE
2
BLOCK_RECORD
5
1
100
AcDbSymbolTable
70
1
0
BLOCK_RECORD
5
1F
100
AcDbSymbolTableRecord
100
AcDbBlockTableRecord
2
*MODEL_SPACE
0
BLOCK_RECORD
5
1B
100
AcDbSymbolTableRecord
100
AcDbBlockTableRecord
2
*PAPER_SPACE
0
ENDTAB
0
ENDSEC
0
SECTION
2
BLOCKS
0
BLOCK
5
20
100
AcDbEntity
100
AcDbBlockBegin
2
*MODEL_SPACE
0
ENDBLK
5
21
100
AcDbEntity
100
AcDbBlockEnd
0
BLOCK
5
1C
100
AcDbEntity
100
AcDbBlockBegin
2
*PAPER_SPACE
0
ENDBLK
5
1D
100
AcDbEntity
100
AcDbBlockEnd
0
ENDSEC
0
SECTION
2
ENTITIES
0
LWPOLYLINE
5
100
100
AcDbEntity
8
0
100
AcDbPolyline
90
16
70
1
43
0.0
10
-259.5000000000004
20
149.99999999993784
10
259.4999999997213
20
149.99999999996842
10
259.49999999971197
20
119.79687245138935
10
319.79687245119567
20
59.5000000002359
10
349.99999999999989
20
59.50000000023573
10
349.9999999999971
20
-53.500000000179107
10
319.7968724512034
20
-53.499999999968253
10
259.49999999973573
20
-113.79687245105302
10
259.50000000002137
20
-149.99999999996842
10
-259.50000000016757
20
-149.99999999996842
10
-259.49999999999068
20
-113.79687245136141
10
-319.79687245118919
20
-53.500000000226962
10
-349.99999999998306
20
-53.500000000243197
10
-349.99999999999989
20
59.500000000236852
10
-319.79687245119607
20
59.500000000236938
10
-259.5000000000004
20
119.79687245139021
0
CIRCLE
5
101
100
AcDbEntity
8
0
100
AcDbCircle
10
229.99999999995939
20
134.99999999996842
30
0
40
3.2999999999999829
210
0
220
0
230
1
0
CIRCLE
5
102
100
AcDbEntity
8
0
100
AcDbCircle
10
334.99999999999943
20
2.9999999999719131
30
0
40
3.2999999999999829
210
0
220
0
230
1
0
CIRCLE
5
103
100
AcDbEntity
8
0
100
AcDbCircle
10
-0.00010097458090840084
20
134.99999999993787
30
0
40
3.3000000000000007
210
0
220
0
230
1
0
CIRCLE
5
104
100
AcDbEntity
8
0
100
AcDbCircle
10
-230.00000000000043
20
134.99999999993787
30
0
40
3.2999999999999829
210
0
220
0
230
1
0
CIRCLE
5
105
100
AcDbEntity
8
0
100
AcDbCircle
10
-229.99999999998752
20
-129.00000000001364
30
0
40
3.2999999999999829
210
0
220
0
230
1
0
CIRCLE
5
106
100
AcDbEntity
8
0
100
AcDbCircle
10
-0.00010097456332068854
20
-128.99999999998326
30
0
40
3.3000000000000007
210
0
220
0
230
1
0
CIRCLE
5
107
100
AcDbEntity
8
0
100
AcDbCircle
10
229.9999999999884
20
-128.9999999999539
30
0
40
3.2999999999999829
210
0
220
0
230
1
0
LWPOLYLINE
5
108
100
AcDbEntity
8
0
100
AcDbPolyline
90
8
70
1
43
0.0
10
140.72182540696363
20
-61.499999999995651
10
-140.721825406948
20
-61.499999999995651
10
-169.5
20
-32.721825406943736
10
-169.5
20
17.721825406948007
10
-140.721825406948
20
46.5
10
140.72182540696366
20
46.5
10
169.50000000001563
20
17.721825406947957
10
169.50000000001563
20
-32.72182540694368
0
CIRCLE
5
109
100
AcDbEntity
8
0
100
AcDbCircle
10
-335
20
2.9999999999395572
30
0
40
3.2999999999999829
210
0
220
0
230
1
0
CIRCLE
5
110
100
AcDbEntity
8
0
100
AcDbCircle
10
-132.77817459303634
20
-67.29118250266275
30
0
40
1.6499999999999917
210
0
220
0
230
1
0
CIRCLE
5
111
100
AcDbEntity
8
0
100
AcDbCircle
10
-66.40317459303634
20
-67.29118250266275
30
0
40
1.6500000000000004
210
0
220
0
230
1
0
CIRCLE
5
112
100
AcDbEntity
8
0
100
AcDbCircle
10
-0.028174593036336407
20
-67.29118250266275
30
0
40
1.6500000000000004
210
0
220
0
230
1
0
CIRCLE
5
113
100
AcDbEntity
8
0
100
AcDbCircle
10
66.34682540696366
20
-67.29118250266275
30
0
40
1.6500000000000004
210
0
220
0
230
1
0
CIRCLE
5
114
100
AcDbEntity
8
0
100
AcDbCircle
10
132.72182540696366
20
-67.29118250266275
30
0
40
1.6499999999999917
210
0
220
0
230
1
0
CIRCLE
5
115
100
AcDbEntity
8
0
100
AcDbCircle
10
132.72182540696366
20
52.208817497337279
30
0
40
1.6499999999999917
210
0
220
0
230
1
0
CIRCLE
5
116
100
AcDbEntity
8
0
100
AcDbCircle
10
66.34682540696366
20
52.208817497337279
30
0
40
1.6500000000000004
210
0
220
0
230
1
0
CIRCLE
5
117
100
AcDbEntity
8
0
100
AcDbCircle
10
-0.028174593036336407
20
52.208817497337279
30
0
40
1.6499999999999972
210
0
220
0
230
1
0
CIRCLE
5
118
100
AcDbEntity
8
0
100
AcDbCircle
10
-66.40317459303634
20
52.208817497337279
30
0
40
1.6500000000000004
210
0
220
0
230
1
0
CIRCLE
5
119
100
AcDbEntity
8
0
100
AcDbCircle
10
-132.77817459303634
20
52.208817497337279
30
0
40
1.6499999999999917
210
0
220
0
230
1
0
ENDSEC
0
SECTION
2
OBJECTS
0
DICTIONARY
5
C
100
AcDbDictionary
3
ACAD_GROUP
350
D
3
ACAD_MLINESTYLE
350
17
0
DICTIONARY
5
D
100
AcDbDictionary
0
DICTIONARY
5
1A
330
C
100
AcDbDictionary
0
DICTIONARY
5
17
100
AcDbDictionary
0
ENDSEC
0
EOF
