0
SECTION
2
HEADER
9
$INSUNITS
70
4
9
$ACADVER
1
AC1014
9
$HANDSEED
5
FFFF
0
ENDSEC
0
SECTION
2
TABLES
0
TABLE
2
VPORT
5
8
100
AcDbSymbolTable
0
ENDTAB
0
TABLE
2
LTYPE
5
5
100
AcDbSymbolTable
0
LTYPE
5
14
100
AcDbSymbolTableRecord
100
AcDbLinetypeTableRecord
2
BYBLOCK
70
0
0
LTYPE
5
15
100
AcDbSymbolTableRecord
100
AcDbLinetypeTableRecord
2
BYLAYER
70
0
0
ENDTAB
0
TABLE
2
LAYER
5
2
100
AcDbSymbolTable
70
2
0
LAYER
5
50
100
AcDbSymbolTableRecord
100
AcDbLayerTableRecord
2
0
70
0
6
CONTINUOUS
0
ENDTAB
0
TABLE
2
STYLE
5
3
100
AcDbSymbolTable
70
1
0
STYLE
5
11
100
AcDbSymbolTableRecord
100
AcDbTextStyleTableRecord
2
STANDARD
70
0
0
ENDTAB
0
TABLE
2
VIEW
5
6
100
AcDbSymbolTable
70
0
0
ENDTAB
0
TABLE
2
UCS
5
7
100
AcDbSymbolTable
70
0
0
ENDTAB
0
TABLE
2
APPID
5
9
100
AcDbSymbolTable
70
2
0
APPID
5
12
100
AcDbSymbolTableRecord
100
AcDbRegAppTableRecord
2
ACAD
70
0
0
ENDTAB
0
TABLE
2
DIMSTYLE
5
A
100
AcDbSymbolTable
70
1
0
ENDTAB
0
TABLE
2
BLOCK_RECORD
5
1
100
AcDbSymbolTable
70
1
0
BLOCK_RECORD
5
1F
100
AcDbSymbolTableRecord
100
AcDbBlockTableRecord
2
*MODEL_SPACE
0
BLOCK_RECORD
5
1B
100
AcDbSymbolTableRecord
100
AcDbBlockTableRecord
2
*PAPER_SPACE
0
ENDTAB
0
ENDSEC
0
SECTION
2
BLOCKS
0
BLOCK
5
20
100
AcDbEntity
100
AcDbBlockBegin
2
*MODEL_SPACE
0
ENDBLK
5
21
100
AcDbEntity
100
AcDbBlockEnd
0
BLOCK
5
1C
100
AcDbEntity
100
AcDbBlockBegin
2
*PAPER_SPACE
0
ENDBLK
5
1D
100
AcDbEntity
100
AcDbBlockEnd
0
ENDSEC
0
SECTION
2
ENTITIES
0
CIRCLE
5
100
100
AcDbEntity
8
0
100
AcDbCircle
10
-66.40317459303634
20
52.208817497337265
30
0
40
1.6500000000000004
210
0
220
0
230
1
0
CIRCLE
5
101
100
AcDbEntity
8
0
100
AcDbCircle
10
-0.028174593036336404
20
52.208817497337265
30
0
40
1.6499999999999972
210
0
220
0
230
1
0
CIRCLE
5
102
100
AcDbEntity
8
0
100
AcDbCircle
10
66.34682540696366
20
-67.29118250266275
30
0
40
1.6500000000000004
210
0
220
0
230
1
0
CIRCLE
5
103
100
AcDbEntity
8
0
100
AcDbCircle
10
-0.028174593036336404
20
-67.29118250266275
30
0
40
1.6500000000000004
210
0
220
0
230
1
0
CIRCLE
5
104
100
AcDbEntity
8
0
100
AcDbCircle
10
66.34682540696366
20
52.208817497337265
30
0
40
1.6500000000000004
210
0
220
0
230
1
0
CIRCLE
5
105
100
AcDbEntity
8
0
100
AcDbCircle
10
-132.77817459303634
20
52.208817497337265
30
0
40
1.6499999999999915
210
0
220
0
230
1
0
CIRCLE
5
106
100
AcDbEntity
8
0
100
AcDbCircle
10
-132.77817459303634
20
-67.29118250266275
30
0
40
1.6499999999999915
210
0
220
0
230
1
0
CIRCLE
5
107
100
AcDbEntity
8
0
100
AcDbCircle
10
132.72182540696366
20
-67.29118250266275
30
0
40
1.6499999999999915
210
0
220
0
230
1
0
CIRCLE
5
108
100
AcDbEntity
8
0
100
AcDbCircle
10
-66.40317459303634
20
-67.29118250266275
30
0
40
1.6500000000000004
210
0
220
0
230
1
0
CIRCLE
5
109
100
AcDbEntity
8
0
100
AcDbCircle
10
132.72182540696366
20
52.208817497337265
30
0
40
1.6499999999999915
210
0
220
0
230
1
0
LWPOLYLINE
5
110
100
AcDbEntity
8
0
100
AcDbPolyline
90
8
70
1
43
0.0
10
169.50000000001563
20
17.721825406947957
10
140.72182540696366
20
46.5
10
-140.721825406948
20
46.5
10
-169.5
20
17.721825406948007
10
-169.5
20
-32.721825406943736
10
-140.721825406948
20
-61.499999999995637
10
140.72182540696363
20
-61.499999999995637
10
169.50000000001563
20
-32.72182540694368
0
CIRCLE
5
111
100
AcDbEntity
8
0
100
AcDbCircle
10
285
20
-91.000000000048757
30
0
40
3.2999999999999829
210
0
220
0
230
1
0
ARC
5
112
100
AcDbEntity
8
0
100
AcDbCircle
10
-285.00000000000887
20
85
30
0
40
3.2999999999999807
210
-0
220
0
230
1
100
AcDbArc
50
-89.977857329085381
51
89.977857329085367
0
ARC
5
113
100
AcDbEntity
8
0
100
AcDbCircle
10
-284.99744934737134
20
85
30
0
40
3.3000000000000265
210
0
220
0
230
1
100
AcDbArc
50
90.022142672955624
51
269.97785732704438
0
CIRCLE
5
114
100
AcDbEntity
8
0
100
AcDbCircle
10
-285.00000000000887
20
-91.000000000048757
30
0
40
3.2999999999999829
210
0
220
0
230
1
0
CIRCLE
5
115
100
AcDbEntity
8
0
100
AcDbCircle
10
235.00000000000742
20
128.99999999998687
30
0
40
3.3000000000000185
210
0
220
0
230
1
0
CIRCLE
5
116
100
AcDbEntity
8
0
100
AcDbCircle
10
235.00000000000739
20
-135.00000000003564
30
0
40
3.3000000000000185
210
0
220
0
230
1
0
CIRCLE
5
117
100
AcDbEntity
8
0
100
AcDbCircle
10
-235.00000000001631
20
128.99999999998687
30
0
40
3.3000000000000185
210
0
220
0
230
1
0
CIRCLE
5
118
100
AcDbEntity
8
0
100
AcDbCircle
10
-235.00000000001631
20
-135.00000000003564
30
0
40
3.3000000000000185
210
0
220
0
230
1
0
CIRCLE
5
119
100
AcDbEntity
8
0
100
AcDbCircle
10
285
20
85
30
0
40
3.2999999999999829
210
0
220
0
230
1
0
LWPOLYLINE
5
120
100
AcDbEntity
8
0
100
AcDbPolyline
90
4
70
1
43
0.0
10
-300.00000000001569
20
150.00000000000961
10
300.00000000000676
20
150.00000000000958
10
300.00000000001563
20
-149.99999999999562
10
-299.99999999997658
20
-150.00000000000961
0
CIRCLE
5
121
100
AcDbEntity
8
0
100
AcDbCircle
10
-0.00043410569798212886
20
-134.99999999999562
30
0
40
3.3000000000000007
210
0
220
0
230
1
0
CIRCLE
5
122
100
AcDbEntity
8
0
100
AcDbCircle
10
180.00000000001586
20
-134.99999999999562
30
0
40
3.2999999999999829
210
0
220
0
230
1
0
CIRCLE
5
123
100
AcDbEntity
8
0
100
AcDbCircle
10
-179.99999999995285
20
-135.00000000000685
30
0
40
3.2999999999999829
210
0
220
0
230
1
0
CIRCLE
5
124
100
AcDbEntity
8
0
100
AcDbCircle
10
-179.99999999997965
20
128.99999999998929
30
0
40
3.2999999999999829
210
0
220
0
230
1
0
CIRCLE
5
125
100
AcDbEntity
8
0
100
AcDbCircle
10
285.0000000000158
20
-3.0000000000065663
30
0
40
3.2999999999999829
210
0
220
0
230
1
0
CIRCLE
5
126
100
AcDbEntity
8
0
100
AcDbCircle
10
-0.00043410569739323166
20
128.99999999997772
30
0
40
3.3000000000000007
210
0
220
0
230
1
0
CIRCLE
5
127
100
AcDbEntity
8
0
100
AcDbCircle
10
180.000000000006
20
128.99999999998704
30
0
40
3.2999999999999829
210
0
220
0
230
1
0
CIRCLE
5
128
100
AcDbEntity
8
0
100
AcDbCircle
10
-284.99999999997851
20
-3.0000000000243743
30
0
40
3.2999999999999829
210
0
220
0
230
1
0
ENDSEC
0
SECTION
2
OBJECTS
0
DICTIONARY
5
C
100
AcDbDictionary
3
ACAD_GROUP
350
D
3
ACAD_MLINESTYLE
350
17
0
DICTIONARY
5
D
100
AcDbDictionary
0
DICTIONARY
5
1A
330
C
100
AcDbDictionary
0
DICTIONARY
5
17
100
AcDbDictionary
0
ENDSEC
0
EOF
