0
SECTION
2
HEADER
9
$INSUNITS
70
4
9
$ACADVER
1
AC1014
9
$HANDSEED
5
FFFF
0
ENDSEC
0
SECTION
2
TABLES
0
TABLE
2
VPORT
5
8
100
AcDbSymbolTable
0
ENDTAB
0
TABLE
2
LTYPE
5
5
100
AcDbSymbolTable
0
LTYPE
5
14
100
AcDbSymbolTableRecord
100
AcDbLinetypeTableRecord
2
BYBLOCK
70
0
0
LTYPE
5
15
100
AcDbSymbolTableRecord
100
AcDbLinetypeTableRecord
2
BYLAYER
70
0
0
ENDTAB
0
TABLE
2
LAYER
5
2
100
AcDbSymbolTable
70
2
0
LAYER
5
50
100
AcDbSymbolTableRecord
100
AcDbLayerTableRecord
2
0
70
0
6
CONTINUOUS
0
ENDTAB
0
TABLE
2
STYLE
5
3
100
AcDbSymbolTable
70
1
0
STYLE
5
11
100
AcDbSymbolTableRecord
100
AcDbTextStyleTableRecord
2
STANDARD
70
0
0
ENDTAB
0
TABLE
2
VIEW
5
6
100
AcDbSymbolTable
70
0
0
ENDTAB
0
TABLE
2
UCS
5
7
100
AcDbSymbolTable
70
0
0
ENDTAB
0
TABLE
2
APPID
5
9
100
AcDbSymbolTable
70
2
0
APPID
5
12
100
AcDbSymbolTableRecord
100
AcDbRegAppTableRecord
2
ACAD
70
0
0
ENDTAB
0
TABLE
2
DIMSTYLE
5
A
100
AcDbSymbolTable
70
1
0
ENDTAB
0
TABLE
2
BLOCK_RECORD
5
1
100
AcDbSymbolTable
70
1
0
BLOCK_RECORD
5
1F
100
AcDbSymbolTableRecord
100
AcDbBlockTableRecord
2
*MODEL_SPACE
0
BLOCK_RECORD
5
1B
100
AcDbSymbolTableRecord
100
AcDbBlockTableRecord
2
*PAPER_SPACE
0
ENDTAB
0
ENDSEC
0
SECTION
2
BLOCKS
0
BLOCK
5
20
100
AcDbEntity
100
AcDbBlockBegin
2
*MODEL_SPACE
0
ENDBLK
5
21
100
AcDbEntity
100
AcDbBlockEnd
0
BLOCK
5
1C
100
AcDbEntity
100
AcDbBlockBegin
2
*PAPER_SPACE
0
ENDBLK
5
1D
100
AcDbEntity
100
AcDbBlockEnd
0
ENDSEC
0
SECTION
2
ENTITIES
0
CIRCLE
5
100
100
AcDbEntity
8
0
100
AcDbCircle
10
-284.99590729141187
20
237.83703422491985
30
0
40
3.2999999999999829
210
0
220
0
230
1
0
CIRCLE
5
101
100
AcDbEntity
8
0
100
AcDbCircle
10
284.99590729141204
20
366.17036755825319
30
0
40
3.2999999999999829
210
0
220
0
230
1
0
CIRCLE
5
102
100
AcDbEntity
8
0
100
AcDbCircle
10
284.99590729141204
20
237.83703422491985
30
0
40
3.2999999999999829
210
0
220
0
230
1
0
CIRCLE
5
103
100
AcDbEntity
8
0
100
AcDbCircle
10
-284.99590729141187
20
366.17036755825319
30
0
40
3.3000000000000185
210
0
220
0
230
1
0
CIRCLE
5
104
100
AcDbEntity
8
0
100
AcDbCircle
10
-284.99590729141187
20
109.50370089158653
30
0
40
3.2999999999999829
210
0
220
0
230
1
0
CIRCLE
5
105
100
AcDbEntity
8
0
100
AcDbCircle
10
284.99590729141204
20
494.5037008915865
30
0
40
3.3000000000000185
210
0
220
0
230
1
0
CIRCLE
5
106
100
AcDbEntity
8
0
100
AcDbCircle
10
284.99590729141204
20
109.50370089158653
30
0
40
3.2999999999999829
210
0
220
0
230
1
0
CIRCLE
5
107
100
AcDbEntity
8
0
100
AcDbCircle
10
-284.99590729141187
20
494.5037008915865
30
0
40
3.3000000000000185
210
0
220
0
230
1
0
CIRCLE
5
108
100
AcDbEntity
8
0
100
AcDbCircle
10
-183
20
7.0000000000000275
30
0
40
3.3000000000000007
210
0
220
0
230
1
0
CIRCLE
5
109
100
AcDbEntity
8
0
100
AcDbCircle
10
183
20
7.0000000000001341
30
0
40
3.3000000000000007
210
0
220
0
230
1
0
CIRCLE
5
110
100
AcDbEntity
8
0
100
AcDbCircle
10
219.00000000000003
20
565.00000000000011
30
0
40
3.2999999999999829
210
0
220
0
230
1
0
CIRCLE
5
111
100
AcDbEntity
8
0
100
AcDbCircle
10
-33
20
7.0000000000000275
30
0
40
3.3000000000000007
210
0
220
0
230
1
0
CIRCLE
5
112
100
AcDbEntity
8
0
100
AcDbCircle
10
-219
20
565.00000000000011
30
0
40
3.2999999999999829
210
0
220
0
230
1
0
CIRCLE
5
113
100
AcDbEntity
8
0
100
AcDbCircle
10
33
20
7.0000000000001341
30
0
40
3.3000000000000007
210
0
220
0
230
1
0
CIRCLE
5
114
100
AcDbEntity
8
0
100
AcDbCircle
10
-74
20
565.00000000000011
30
0
40
3.3000000000000007
210
0
220
0
230
1
0
LWPOLYLINE
5
115
100
AcDbEntity
8
0
100
AcDbPolyline
90
40
70
1
43
0.0
10
25.000051945504502
20
-5.5000000596046448
10
18.000051945504481
20
1.4999999403953557
10
18.000051945504488
20
20.499999809265248
10
-18.000051945504406
20
20.499999809265248
10
-18.00005194550441
20
1.4999999403953557
10
-25.000051945504396
20
-5.5000000596046448
10
-196.48605194550441
20
-5.5000000596046439
10
-196.48605194550441
20
8.3860480871930001
10
-220.00000327825546
20
32.000000476837158
10
-220.00000327825546
20
65.000000968575478
10
-228.95099393174689
20
73.989058747107805
10
-260.00000387430191
20
73.989058747107805
10
-280.75463672943431
20
94.831957721003945
10
-299.0000043958425
20
94.831957721003945
10
-299.0000043958425
20
513.99970089158649
10
-269.99961637901316
20
513.99970089158649
10
-269.99961637901316
20
550.00000820308924
10
-233.99988708533357
20
550.00000820308924
10
-233.99988708533357
20
579.00000862777233
10
-50.617970046210807
20
579.00000862777233
10
-50.617970046210814
20
551.29995338174604
10
-31.000000461936001
20
551.29995338174604
10
-31.000000461936001
20
500
10
-18.623224683081443
20
487.79217599519598
10
18.000000268220898
20
487.79217599519598
10
31.16159997547939
20
501.13592737985465
10
31.16159997547939
20
579.00000862777233
10
233.9998870853336
20
579.00000862777233
10
233.9998870853336
20
550.00000820308924
10
269.99961637901316
20
550.00000820308924
10
269.99961637901316
20
513.99970089158649
10
299.00000439584261
20
513.99970089158649
10
299.00000439584261
20
94.831957721004017
10
280.75463672943437
20
94.831957721004002
10
260.00000387430197
20
73.989058747107805
10
228.95099393174704
20
73.989058747107805
10
220.00000327825558
20
65.000000968575478
10
220.00000327825558
20
32.000000476837158
10
196.48605194550444
20
8.3860480871930001
10
196.48605194550444
20
-5.5000000596046448
0
ENDSEC
0
SECTION
2
OBJECTS
0
DICTIONARY
5
C
100
AcDbDictionary
3
ACAD_GROUP
350
D
3
ACAD_MLINESTYLE
350
17
0
DICTIONARY
5
D
100
AcDbDictionary
0
DICTIONARY
5
1A
330
C
100
AcDbDictionary
0
DICTIONARY
5
17
100
AcDbDictionary
0
ENDSEC
0
EOF
