0
SECTION
2
HEADER
9
$INSUNITS
70
4
9
$ACADVER
1
AC1014
9
$HANDSEED
5
FFFF
0
ENDSEC
0
SECTION
2
TABLES
0
TABLE
2
VPORT
5
8
100
AcDbSymbolTable
0
ENDTAB
0
TABLE
2
LTYPE
5
5
100
AcDbSymbolTable
0
LTYPE
5
14
100
AcDbSymbolTableRecord
100
AcDbLinetypeTableRecord
2
BYBLOCK
70
0
0
LTYPE
5
15
100
AcDbSymbolTableRecord
100
AcDbLinetypeTableRecord
2
BYLAYER
70
0
0
ENDTAB
0
TABLE
2
LAYER
5
2
100
AcDbSymbolTable
70
2
0
LAYER
5
50
100
AcDbSymbolTableRecord
100
AcDbLayerTableRecord
2
0
70
0
6
CONTINUOUS
0
ENDTAB
0
TABLE
2
STYLE
5
3
100
AcDbSymbolTable
70
1
0
STYLE
5
11
100
AcDbSymbolTableRecord
100
AcDbTextStyleTableRecord
2
STANDARD
70
0
0
ENDTAB
0
TABLE
2
VIEW
5
6
100
AcDbSymbolTable
70
0
0
ENDTAB
0
TABLE
2
UCS
5
7
100
AcDbSymbolTable
70
0
0
ENDTAB
0
TABLE
2
APPID
5
9
100
AcDbSymbolTable
70
2
0
APPID
5
12
100
AcDbSymbolTableRecord
100
AcDbRegAppTableRecord
2
ACAD
70
0
0
ENDTAB
0
TABLE
2
DIMSTYLE
5
A
100
AcDbSymbolTable
70
1
0
ENDTAB
0
TABLE
2
BLOCK_RECORD
5
1
100
AcDbSymbolTable
70
1
0
BLOCK_RECORD
5
1F
100
AcDbSymbolTableRecord
100
AcDbBlockTableRecord
2
*MODEL_SPACE
0
BLOCK_RECORD
5
1B
100
AcDbSymbolTableRecord
100
AcDbBlockTableRecord
2
*PAPER_SPACE
0
ENDTAB
0
ENDSEC
0
SECTION
2
BLOCKS
0
BLOCK
5
20
100
AcDbEntity
100
AcDbBlockBegin
2
*MODEL_SPACE
0
ENDBLK
5
21
100
AcDbEntity
100
AcDbBlockEnd
0
BLOCK
5
1C
100
AcDbEntity
100
AcDbBlockBegin
2
*PAPER_SPACE
0
ENDBLK
5
1D
100
AcDbEntity
100
AcDbBlockEnd
0
ENDSEC
0
SECTION
2
ENTITIES
0
LWPOLYLINE
5
100
100
AcDbEntity
8
0
100
AcDbPolyline
90
40
70
1
43
0.0
10
-1025.000117310509
20
213.24999957531742
10
-1025.000117310509
20
242.25000000000045
10
-1177.8384000245205
20
242.25000000000006
10
-1177.8384000245205
20
164.38591875208289
10
-1190.9999997317791
20
151.04216736742413
10
-1227.6232246830814
20
151.04216736742413
10
-1240.000000461936
20
163.24999137222812
10
-1240.000000461936
20
214.54994475397424
10
-1259.6179700462105
20
214.54994475397424
10
-1259.6179700462105
20
242.25000000000009
10
-1392.9998826894907
20
242.25000000000045
10
-1392.9998826894907
20
213.24999957531742
10
-1428.9996119831701
20
213.24999957531742
10
-1428.9996119831701
20
177.24969226381464
10
-1457.9999999999998
20
177.24969226381464
10
-1457.9999999999998
20
-141.91804221939168
10
-1439.7546323335916
20
-141.91804221939174
10
-1418.9999994784591
20
-162.76094119328786
10
-1387.9509895359042
20
-162.76094119328789
10
-1378.9999988824127
20
-171.74999897182016
10
-1378.9999988824127
20
-204.74999946355851
10
-1355.4860475496616
20
-228.36395185320259
10
-1355.4860475496616
20
-242.24999999999997
10
-1234.0000518858992
20
-242.25000000000009
10
-1227.0000519455043
20
-235.25000005960482
10
-1227.0000519455043
20
-216.25000019073494
10
-1190.9999480544955
20
-216.25000019073494
10
-1190.9999480544955
20
-235.25000005960487
10
-1183.9999480544955
20
-242.24999999999997
10
-1062.5139524503381
20
-242.25000000000026
10
-1062.5139524503381
20
-228.36395185320265
10
-1039.0000011175871
20
-204.74999946355848
10
-1039.0000011175871
20
-171.74999897182016
10
-1030.0490104640955
20
-162.76094119328786
10
-999.00000052154064
20
-162.76094119328786
10
-978.24536766640813
20
-141.91804221939162
10
-960
20
-141.91804221939162
10
-960
20
177.24969226381464
10
-989.00038801682945
20
177.24969226381464
10
-989.00038801682945
20
213.24999957531742
0
CIRCLE
5
101
100
AcDbEntity
8
0
100
AcDbCircle
10
-1076.0000043958426
20
-229.7499999403955
30
0
40
3.2999999999999829
210
0
220
0
230
1
0
CIRCLE
5
102
100
AcDbEntity
8
0
100
AcDbCircle
10
-974.00409710443057
20
-127.24629904880911
30
0
40
3.2999999999999829
210
0
220
0
230
1
0
CIRCLE
5
103
100
AcDbEntity
8
0
100
AcDbCircle
10
-1341.9999956041574
20
-229.74999994039561
30
0
40
3.3000000000001251
210
0
220
0
230
1
0
CIRCLE
5
104
100
AcDbEntity
8
0
100
AcDbCircle
10
-1443.9959028955693
20
-127.24629904880911
30
0
40
3.3000000000001251
210
0
220
0
230
1
0
CIRCLE
5
105
100
AcDbEntity
8
0
100
AcDbCircle
10
-1176
20
-229.75
30
0
40
3.3000000000000003
210
0
220
0
230
1
0
CIRCLE
5
106
100
AcDbEntity
8
0
100
AcDbCircle
10
-973.99999999999989
20
-4.9096451279368995e-14
30
0
40
3.3000000000000003
210
0
220
0
230
1
0
CIRCLE
5
107
100
AcDbEntity
8
0
100
AcDbCircle
10
-973.99999999999989
20
162.25
30
0
40
3.3000000000000003
210
0
220
0
230
1
0
CIRCLE
5
108
100
AcDbEntity
8
0
100
AcDbCircle
10
-1040
20
228.25
30
0
40
3.3000000000000003
210
0
220
0
230
1
0
CIRCLE
5
109
100
AcDbEntity
8
0
100
AcDbCircle
10
-1143
20
228.25
30
0
40
3.3000000000000003
210
0
220
0
230
1
0
CIRCLE
5
110
100
AcDbEntity
8
0
100
AcDbCircle
10
-1282.9999999999998
20
228.25
30
0
40
3.3000000000000003
210
0
220
0
230
1
0
CIRCLE
5
111
100
AcDbEntity
8
0
100
AcDbCircle
10
-1377.9999999999998
20
228.25
30
0
40
3.3000000000000003
210
0
220
0
230
1
0
CIRCLE
5
112
100
AcDbEntity
8
0
100
AcDbCircle
10
-1444
20
162.25
30
0
40
3.3000000000000003
210
0
220
0
230
1
0
CIRCLE
5
113
100
AcDbEntity
8
0
100
AcDbCircle
10
-1444
20
-1.0665485083929401e-13
30
0
40
3.3000000000000003
210
0
220
0
230
1
0
CIRCLE
5
114
100
AcDbEntity
8
0
100
AcDbCircle
10
-1242
20
-229.75
30
0
40
3.3000000000000003
210
0
220
0
230
1
0
ENDSEC
0
SECTION
2
OBJECTS
0
DICTIONARY
5
C
100
AcDbDictionary
3
ACAD_GROUP
350
D
3
ACAD_MLINESTYLE
350
17
0
DICTIONARY
5
D
100
AcDbDictionary
0
DICTIONARY
5
1A
330
C
100
AcDbDictionary
0
DICTIONARY
5
17
100
AcDbDictionary
0
ENDSEC
0
EOF
